<?xml version="1.0" encoding="UTF-8"?>
<svg xmlns="http://www.w3.org/2000/svg" xmlns:xlink="http://www.w3.org/1999/xlink"
     width="100" height="100" viewBox="-50.0 -50.0 100 100">
<defs>
</defs>
<path d="M-50.0,-50.0 L-49.44444444444444,-50.0 L-49.44444444444444,50.0 L-50.0,50.0 Z" fill="Black" stroke="none" />
<path d="M-48.888888888888886,-50.0 L-48.33333333333333,-50.0 L-48.33333333333333,50.0 L-48.888888888888886,50.0 Z" fill="Black" stroke="none" />
<path d="M-47.77777777777777,-50.0 L-47.222222222222214,-50.0 L-47.222222222222214,50.0 L-47.77777777777777,50.0 Z" fill="Black" stroke="none" />
<path d="M-46.66666666666666,-50.0 L-46.1111111111111,-50.0 L-46.1111111111111,50.0 L-46.66666666666666,50.0 Z" fill="Black" stroke="none" />
<path d="M-45.55555555555554,-50.0 L-44.999999999999986,-50.0 L-44.999999999999986,50.0 L-45.55555555555554,50.0 Z" fill="Black" stroke="none" />
<path d="M-44.44444444444443,-50.0 L-43.88888888888887,-50.0 L-43.88888888888887,50.0 L-44.44444444444443,50.0 Z" fill="Black" stroke="none" />
<path d="M-43.333333333333314,-50.0 L-42.77777777777776,-50.0 L-42.77777777777776,50.0 L-43.333333333333314,50.0 Z" fill="Black" stroke="none" />
<path d="M-42.2222222222222,-50.0 L-41.66666666666664,-50.0 L-41.66666666666664,50.0 L-42.2222222222222,50.0 Z" fill="Black" stroke="none" />
<path d="M-41.111111111111086,-50.0 L-40.55555555555553,-50.0 L-40.55555555555553,50.0 L-41.111111111111086,50.0 Z" fill="Black" stroke="none" />
<path d="M-39.99999999999997,-50.0 L-39.444444444444414,-50.0 L-39.444444444444414,50.0 L-39.99999999999997,50.0 Z" fill="Black" stroke="none" />
<path d="M-38.88888888888886,-50.0 L-38.3333333333333,-50.0 L-38.3333333333333,50.0 L-38.88888888888886,50.0 Z" fill="Black" stroke="none" />
<path d="M-37.77777777777774,-50.0 L-37.222222222222186,-50.0 L-37.222222222222186,50.0 L-37.77777777777774,50.0 Z" fill="Black" stroke="none" />
<path d="M-36.66666666666663,-50.0 L-36.11111111111107,-50.0 L-36.11111111111107,50.0 L-36.66666666666663,50.0 Z" fill="Black" stroke="none" />
<path d="M-35.555555555555515,-50.0 L-34.99999999999996,-50.0 L-34.99999999999996,50.0 L-35.555555555555515,50.0 Z" fill="Black" stroke="none" />
<path d="M-34.4444444444444,-50.0 L-33.88888888888884,-50.0 L-33.88888888888884,50.0 L-34.4444444444444,50.0 Z" fill="Black" stroke="none" />
<path d="M-33.333333333333286,-50.0 L-32.77777777777773,-50.0 L-32.77777777777773,50.0 L-33.333333333333286,50.0 Z" fill="Black" stroke="none" />
<path d="M-32.22222222222217,-50.0 L-31.666666666666618,-50.0 L-31.666666666666618,50.0 L-32.22222222222217,50.0 Z" fill="Black" stroke="none" />
<path d="M-31.11111111111106,-50.0 L-30.555555555555507,-50.0 L-30.555555555555507,50.0 L-31.11111111111106,50.0 Z" fill="Black" stroke="none" />
<path d="M-29.99999999999995,-50.0 L-29.444444444444397,-50.0 L-29.444444444444397,50.0 L-29.99999999999995,50.0 Z" fill="Black" stroke="none" />
<path d="M-28.88888888888884,-50.0 L-28.333333333333286,-50.0 L-28.333333333333286,50.0 L-28.88888888888884,50.0 Z" fill="Black" stroke="none" />
<path d="M-27.77777777777773,-50.0 L-27.222222222222175,-50.0 L-27.222222222222175,50.0 L-27.77777777777773,50.0 Z" fill="Black" stroke="none" />
<path d="M-26.666666666666618,-50.0 L-26.111111111111065,-50.0 L-26.111111111111065,50.0 L-26.666666666666618,50.0 Z" fill="Black" stroke="none" />
<path d="M-25.555555555555507,-50.0 L-24.999999999999954,-50.0 L-24.999999999999954,50.0 L-25.555555555555507,50.0 Z" fill="Black" stroke="none" />
<path d="M-24.444444444444397,-50.0 L-23.888888888888843,-50.0 L-23.888888888888843,50.0 L-24.444444444444397,50.0 Z" fill="Black" stroke="none" />
<path d="M-23.333333333333286,-50.0 L-22.777777777777732,-50.0 L-22.777777777777732,50.0 L-23.333333333333286,50.0 Z" fill="Black" stroke="none" />
<path d="M-22.222222222222175,-50.0 L-21.66666666666662,-50.0 L-21.66666666666662,50.0 L-22.222222222222175,50.0 Z" fill="Black" stroke="none" />
<path d="M-21.111111111111065,-50.0 L-20.55555555555551,-50.0 L-20.55555555555551,50.0 L-21.111111111111065,50.0 Z" fill="Black" stroke="none" />
<path d="M-19.999999999999954,-50.0 L-19.4444444444444,-50.0 L-19.4444444444444,50.0 L-19.999999999999954,50.0 Z" fill="Black" stroke="none" />
<path d="M-18.888888888888843,-50.0 L-18.33333333333329,-50.0 L-18.33333333333329,50.0 L-18.888888888888843,50.0 Z" fill="Black" stroke="none" />
<path d="M-17.777777777777732,-50.0 L-17.22222222222218,-50.0 L-17.22222222222218,50.0 L-17.777777777777732,50.0 Z" fill="Black" stroke="none" />
<path d="M-16.66666666666662,-50.0 L-16.111111111111068,-50.0 L-16.111111111111068,50.0 L-16.66666666666662,50.0 Z" fill="Black" stroke="none" />
<path d="M-15.555555555555511,-50.0 L-14.999999999999957,-50.0 L-14.999999999999957,50.0 L-15.555555555555511,50.0 Z" fill="Black" stroke="none" />
<path d="M-14.4444444444444,-50.0 L-13.888888888888847,-50.0 L-13.888888888888847,50.0 L-14.4444444444444,50.0 Z" fill="Black" stroke="none" />
<path d="M-13.33333333333329,-50.0 L-12.777777777777736,-50.0 L-12.777777777777736,50.0 L-13.33333333333329,50.0 Z" fill="Black" stroke="none" />
<path d="M-12.222222222222179,-50.0 L-11.666666666666625,-50.0 L-11.666666666666625,50.0 L-12.222222222222179,50.0 Z" fill="Black" stroke="none" />
<path d="M-11.111111111111068,-50.0 L-10.555555555555515,-50.0 L-10.555555555555515,50.0 L-11.111111111111068,50.0 Z" fill="Black" stroke="none" />
<path d="M-9.999999999999957,-50.0 L-9.444444444444404,-50.0 L-9.444444444444404,50.0 L-9.999999999999957,50.0 Z" fill="Black" stroke="none" />
<path d="M-8.888888888888847,-50.0 L-8.333333333333293,-50.0 L-8.333333333333293,50.0 L-8.888888888888847,50.0 Z" fill="Black" stroke="none" />
<path d="M-7.777777777777736,-50.0 L-7.222222222222182,-50.0 L-7.222222222222182,50.0 L-7.777777777777736,50.0 Z" fill="Black" stroke="none" />
<path d="M-6.666666666666625,-50.0 L-6.111111111111072,-50.0 L-6.111111111111072,50.0 L-6.666666666666625,50.0 Z" fill="Black" stroke="none" />
<path d="M-5.5555555555555145,-50.0 L-4.999999999999961,-50.0 L-4.999999999999961,50.0 L-5.5555555555555145,50.0 Z" fill="Black" stroke="none" />
<path d="M-4.444444444444404,-50.0 L-3.8888888888888498,-50.0 L-3.8888888888888498,50.0 L-4.444444444444404,50.0 Z" fill="Black" stroke="none" />
<path d="M-3.3333333333332926,-50.0 L-2.7777777777777386,-50.0 L-2.7777777777777386,50.0 L-3.3333333333332926,50.0 Z" fill="Black" stroke="none" />
<path d="M-2.2222222222221815,-50.0 L-1.6666666666666274,-50.0 L-1.6666666666666274,50.0 L-2.2222222222221815,50.0 Z" fill="Black" stroke="none" />
<path d="M-1.1111111111110703,-50.0 L-0.5555555555555163,-50.0 L-0.5555555555555163,50.0 L-1.1111111111110703,50.0 Z" fill="Black" stroke="none" />
<path d="M4.085620730620576e-14,-50.0 L0.5555555555555949,-50.0 L0.5555555555555949,50.0 L4.085620730620576e-14,50.0 Z" fill="Black" stroke="none" />
<path d="M1.111111111111152,-50.0 L1.666666666666706,-50.0 L1.666666666666706,50.0 L1.111111111111152,50.0 Z" fill="Black" stroke="none" />
<path d="M2.222222222222263,-50.0 L2.777777777777817,-50.0 L2.777777777777817,50.0 L2.222222222222263,50.0 Z" fill="Black" stroke="none" />
<path d="M3.3333333333333743,-50.0 L3.8888888888889284,-50.0 L3.8888888888889284,50.0 L3.3333333333333743,50.0 Z" fill="Black" stroke="none" />
<path d="M4.4444444444444855,-50.0 L5.000000000000039,-50.0 L5.000000000000039,50.0 L4.4444444444444855,50.0 Z" fill="Black" stroke="none" />
<path d="M5.555555555555596,-50.0 L6.11111111111115,-50.0 L6.11111111111115,50.0 L5.555555555555596,50.0 Z" fill="Black" stroke="none" />
<path d="M6.666666666666707,-50.0 L7.2222222222222605,-50.0 L7.2222222222222605,50.0 L6.666666666666707,50.0 Z" fill="Black" stroke="none" />
<path d="M7.777777777777818,-50.0 L8.333333333333371,-50.0 L8.333333333333371,50.0 L7.777777777777818,50.0 Z" fill="Black" stroke="none" />
<path d="M8.888888888888928,-50.0 L9.444444444444482,-50.0 L9.444444444444482,50.0 L8.888888888888928,50.0 Z" fill="Black" stroke="none" />
<path d="M10.000000000000039,-50.0 L10.555555555555593,-50.0 L10.555555555555593,50.0 L10.000000000000039,50.0 Z" fill="Black" stroke="none" />
<path d="M11.11111111111115,-50.0 L11.666666666666703,-50.0 L11.666666666666703,50.0 L11.11111111111115,50.0 Z" fill="Black" stroke="none" />
<path d="M12.22222222222226,-50.0 L12.777777777777814,-50.0 L12.777777777777814,50.0 L12.22222222222226,50.0 Z" fill="Black" stroke="none" />
<path d="M13.333333333333371,-50.0 L13.888888888888925,-50.0 L13.888888888888925,50.0 L13.333333333333371,50.0 Z" fill="Black" stroke="none" />
<path d="M14.444444444444482,-50.0 L15.000000000000036,-50.0 L15.000000000000036,50.0 L14.444444444444482,50.0 Z" fill="Black" stroke="none" />
<path d="M15.555555555555593,-50.0 L16.111111111111146,-50.0 L16.111111111111146,50.0 L15.555555555555593,50.0 Z" fill="Black" stroke="none" />
<path d="M16.666666666666703,-50.0 L17.222222222222257,-50.0 L17.222222222222257,50.0 L16.666666666666703,50.0 Z" fill="Black" stroke="none" />
<path d="M17.777777777777814,-50.0 L18.333333333333368,-50.0 L18.333333333333368,50.0 L17.777777777777814,50.0 Z" fill="Black" stroke="none" />
<path d="M18.888888888888925,-50.0 L19.44444444444448,-50.0 L19.44444444444448,50.0 L18.888888888888925,50.0 Z" fill="Black" stroke="none" />
<path d="M20.000000000000036,-50.0 L20.55555555555559,-50.0 L20.55555555555559,50.0 L20.000000000000036,50.0 Z" fill="Black" stroke="none" />
<path d="M21.111111111111146,-50.0 L21.6666666666667,-50.0 L21.6666666666667,50.0 L21.111111111111146,50.0 Z" fill="Black" stroke="none" />
<path d="M22.222222222222257,-50.0 L22.77777777777781,-50.0 L22.77777777777781,50.0 L22.222222222222257,50.0 Z" fill="Black" stroke="none" />
<path d="M23.333333333333368,-50.0 L23.88888888888892,-50.0 L23.88888888888892,50.0 L23.333333333333368,50.0 Z" fill="Black" stroke="none" />
<path d="M24.44444444444448,-50.0 L25.000000000000032,-50.0 L25.000000000000032,50.0 L24.44444444444448,50.0 Z" fill="Black" stroke="none" />
<path d="M25.55555555555559,-50.0 L26.111111111111143,-50.0 L26.111111111111143,50.0 L25.55555555555559,50.0 Z" fill="Black" stroke="none" />
<path d="M26.6666666666667,-50.0 L27.222222222222253,-50.0 L27.222222222222253,50.0 L26.6666666666667,50.0 Z" fill="Black" stroke="none" />
<path d="M27.77777777777781,-50.0 L28.333333333333364,-50.0 L28.333333333333364,50.0 L27.77777777777781,50.0 Z" fill="Black" stroke="none" />
<path d="M28.88888888888892,-50.0 L29.444444444444475,-50.0 L29.444444444444475,50.0 L28.88888888888892,50.0 Z" fill="Black" stroke="none" />
<path d="M30.000000000000032,-50.0 L30.555555555555586,-50.0 L30.555555555555586,50.0 L30.000000000000032,50.0 Z" fill="Black" stroke="none" />
<path d="M31.111111111111143,-50.0 L31.666666666666696,-50.0 L31.666666666666696,50.0 L31.111111111111143,50.0 Z" fill="Black" stroke="none" />
<path d="M32.22222222222226,-50.0 L32.77777777777781,-50.0 L32.77777777777781,50.0 L32.22222222222226,50.0 Z" fill="Black" stroke="none" />
<path d="M33.33333333333337,-50.0 L33.88888888888892,-50.0 L33.88888888888892,50.0 L33.33333333333337,50.0 Z" fill="Black" stroke="none" />
<path d="M34.444444444444485,-50.0 L35.000000000000036,-50.0 L35.000000000000036,50.0 L34.444444444444485,50.0 Z" fill="Black" stroke="none" />
<path d="M35.5555555555556,-50.0 L36.11111111111115,-50.0 L36.11111111111115,50.0 L35.5555555555556,50.0 Z" fill="Black" stroke="none" />
<path d="M36.666666666666714,-50.0 L37.222222222222264,-50.0 L37.222222222222264,50.0 L36.666666666666714,50.0 Z" fill="Black" stroke="none" />
<path d="M37.77777777777783,-50.0 L38.33333333333338,-50.0 L38.33333333333338,50.0 L37.77777777777783,50.0 Z" fill="Black" stroke="none" />
<path d="M38.88888888888894,-50.0 L39.44444444444449,-50.0 L39.44444444444449,50.0 L38.88888888888894,50.0 Z" fill="Black" stroke="none" />
<path d="M40.00000000000006,-50.0 L40.55555555555561,-50.0 L40.55555555555561,50.0 L40.00000000000006,50.0 Z" fill="Black" stroke="none" />
<path d="M41.11111111111117,-50.0 L41.66666666666672,-50.0 L41.66666666666672,50.0 L41.11111111111117,50.0 Z" fill="Black" stroke="none" />
<path d="M42.222222222222285,-50.0 L42.777777777777835,-50.0 L42.777777777777835,50.0 L42.222222222222285,50.0 Z" fill="Black" stroke="none" />
<path d="M43.3333333333334,-50.0 L43.88888888888895,-50.0 L43.88888888888895,50.0 L43.3333333333334,50.0 Z" fill="Black" stroke="none" />
<path d="M44.444444444444514,-50.0 L45.000000000000064,-50.0 L45.000000000000064,50.0 L44.444444444444514,50.0 Z" fill="Black" stroke="none" />
<path d="M45.55555555555563,-50.0 L46.11111111111118,-50.0 L46.11111111111118,50.0 L45.55555555555563,50.0 Z" fill="Black" stroke="none" />
<path d="M46.66666666666674,-50.0 L47.22222222222229,-50.0 L47.22222222222229,50.0 L46.66666666666674,50.0 Z" fill="Black" stroke="none" />
<path d="M47.77777777777786,-50.0 L48.33333333333341,-50.0 L48.33333333333341,50.0 L47.77777777777786,50.0 Z" fill="Black" stroke="none" />
<path d="M48.88888888888897,-50.0 L49.44444444444452,-50.0 L49.44444444444452,50.0 L48.88888888888897,50.0 Z" fill="Black" stroke="none" />
<path d="M50.000000000000085,-50.0 L50.555555555555635,-50.0 L50.555555555555635,50.0 L50.000000000000085,50.0 Z" fill="Black" stroke="none" />
</svg>